<?xml version="1.0" encoding="UTF-8" standalone="no"?>
<!DOCTYPE svg PUBLIC "-//W3C//DTD SVG 1.1//EN"
 "http://www.w3.org/Graphics/SVG/1.1/DTD/svg11.dtd">
<!-- Generated by graphviz version 2.38.0 (20140413.2041)
 -->
<!-- Title: Tree Pages: 1 -->
<svg width="1606pt" height="789pt"
 viewBox="0.00 0.00 1605.50 789.00" xmlns="http://www.w3.org/2000/svg" xmlns:xlink="http://www.w3.org/1999/xlink">
<g id="graph0" class="graph" transform="scale(1 1) rotate(0) translate(4 785)">
<title>Tree</title>
<polygon fill="white" stroke="none" points="-4,4 -4,-785 1601.5,-785 1601.5,4 -4,4"/>
<!-- 0 -->
<g id="node1" class="node"><title>0</title>
<polygon fill="none" stroke="black" points="930.5,-781 805.5,-781 805.5,-713 930.5,-713 930.5,-781"/>
<text text-anchor="middle" x="868" y="-765.8" font-family="Times New Roman,serif" font-size="14.00">Gender &lt;= 0.5</text>
<text text-anchor="middle" x="868" y="-750.8" font-family="Times New Roman,serif" font-size="14.00">entropy = 0.822</text>
<text text-anchor="middle" x="868" y="-735.8" font-family="Times New Roman,serif" font-size="14.00">samples = 1959</text>
<text text-anchor="middle" x="868" y="-720.8" font-family="Times New Roman,serif" font-size="14.00">value = [1456, 503]</text>
</g>
<!-- 1 -->
<g id="node2" class="node"><title>1</title>
<polygon fill="none" stroke="black" points="828,-677 710,-677 710,-609 828,-609 828,-677"/>
<text text-anchor="middle" x="769" y="-661.8" font-family="Times New Roman,serif" font-size="14.00">Class &lt;= 1.5</text>
<text text-anchor="middle" x="769" y="-646.8" font-family="Times New Roman,serif" font-size="14.00">entropy = 0.982</text>
<text text-anchor="middle" x="769" y="-631.8" font-family="Times New Roman,serif" font-size="14.00">samples = 464</text>
<text text-anchor="middle" x="769" y="-616.8" font-family="Times New Roman,serif" font-size="14.00">value = [195, 269]</text>
</g>
<!-- 0&#45;&gt;1 -->
<g id="edge1" class="edge"><title>0&#45;&gt;1</title>
<path fill="none" stroke="black" d="M835.858,-712.884C827.126,-703.887 817.569,-694.041 808.482,-684.678"/>
<polygon fill="black" stroke="black" points="810.796,-682.038 801.32,-677.299 805.773,-686.913 810.796,-682.038"/>
<text text-anchor="middle" x="800.947" y="-698.597" font-family="Times New Roman,serif" font-size="14.00">True</text>
</g>
<!-- 2 -->
<g id="node23" class="node"><title>2</title>
<polygon fill="none" stroke="black" points="1029.5,-677 904.5,-677 904.5,-609 1029.5,-609 1029.5,-677"/>
<text text-anchor="middle" x="967" y="-661.8" font-family="Times New Roman,serif" font-size="14.00">Age &lt;= 12.0</text>
<text text-anchor="middle" x="967" y="-646.8" font-family="Times New Roman,serif" font-size="14.00">entropy = 0.626</text>
<text text-anchor="middle" x="967" y="-631.8" font-family="Times New Roman,serif" font-size="14.00">samples = 1495</text>
<text text-anchor="middle" x="967" y="-616.8" font-family="Times New Roman,serif" font-size="14.00">value = [1261, 234]</text>
</g>
<!-- 0&#45;&gt;2 -->
<g id="edge22" class="edge"><title>0&#45;&gt;2</title>
<path fill="none" stroke="black" d="M900.142,-712.884C908.874,-703.887 918.431,-694.041 927.518,-684.678"/>
<polygon fill="black" stroke="black" points="930.227,-686.913 934.68,-677.299 925.204,-682.038 930.227,-686.913"/>
<text text-anchor="middle" x="935.053" y="-698.597" font-family="Times New Roman,serif" font-size="14.00">False</text>
</g>
<!-- 3 -->
<g id="node3" class="node"><title>3</title>
<polygon fill="none" stroke="black" points="467.5,-573 356.5,-573 356.5,-505 467.5,-505 467.5,-573"/>
<text text-anchor="middle" x="412" y="-557.8" font-family="Times New Roman,serif" font-size="14.00">Class &lt;= 0.5</text>
<text text-anchor="middle" x="412" y="-542.8" font-family="Times New Roman,serif" font-size="14.00">entropy = 0.737</text>
<text text-anchor="middle" x="412" y="-527.8" font-family="Times New Roman,serif" font-size="14.00">samples = 231</text>
<text text-anchor="middle" x="412" y="-512.8" font-family="Times New Roman,serif" font-size="14.00">value = [48, 183]</text>
</g>
<!-- 1&#45;&gt;3 -->
<g id="edge2" class="edge"><title>1&#45;&gt;3</title>
<path fill="none" stroke="black" d="M709.648,-625.042C645.622,-606.749 543.957,-577.702 477.601,-558.743"/>
<polygon fill="black" stroke="black" points="478.247,-555.288 467.671,-555.906 476.324,-562.019 478.247,-555.288"/>
</g>
<!-- 4 -->
<g id="node14" class="node"><title>4</title>
<polygon fill="none" stroke="black" points="824.5,-573 713.5,-573 713.5,-505 824.5,-505 824.5,-573"/>
<text text-anchor="middle" x="769" y="-557.8" font-family="Times New Roman,serif" font-size="14.00">Class &lt;= 2.5</text>
<text text-anchor="middle" x="769" y="-542.8" font-family="Times New Roman,serif" font-size="14.00">entropy = 0.95</text>
<text text-anchor="middle" x="769" y="-527.8" font-family="Times New Roman,serif" font-size="14.00">samples = 233</text>
<text text-anchor="middle" x="769" y="-512.8" font-family="Times New Roman,serif" font-size="14.00">value = [147, 86]</text>
</g>
<!-- 1&#45;&gt;4 -->
<g id="edge13" class="edge"><title>1&#45;&gt;4</title>
<path fill="none" stroke="black" d="M769,-608.884C769,-600.778 769,-591.982 769,-583.472"/>
<polygon fill="black" stroke="black" points="772.5,-583.299 769,-573.299 765.5,-583.299 772.5,-583.299"/>
</g>
<!-- 21 -->
<g id="node4" class="node"><title>21</title>
<polygon fill="none" stroke="black" points="284.5,-469 173.5,-469 173.5,-401 284.5,-401 284.5,-469"/>
<text text-anchor="middle" x="229" y="-453.8" font-family="Times New Roman,serif" font-size="14.00">Age &lt;= 38.5</text>
<text text-anchor="middle" x="229" y="-438.8" font-family="Times New Roman,serif" font-size="14.00">entropy = 0.581</text>
<text text-anchor="middle" x="229" y="-423.8" font-family="Times New Roman,serif" font-size="14.00">samples = 137</text>
<text text-anchor="middle" x="229" y="-408.8" font-family="Times New Roman,serif" font-size="14.00">value = [19, 118]</text>
</g>
<!-- 3&#45;&gt;21 -->
<g id="edge3" class="edge"><title>3&#45;&gt;21</title>
<path fill="none" stroke="black" d="M356.1,-506.842C336.322,-495.819 313.916,-483.33 293.484,-471.942"/>
<polygon fill="black" stroke="black" points="294.997,-468.778 284.558,-466.967 291.589,-474.893 294.997,-468.778"/>
</g>
<!-- 22 -->
<g id="node9" class="node"><title>22</title>
<polygon fill="none" stroke="black" points="465,-469 359,-469 359,-401 465,-401 465,-469"/>
<text text-anchor="middle" x="412" y="-453.8" font-family="Times New Roman,serif" font-size="14.00">Age &lt;= 16.0</text>
<text text-anchor="middle" x="412" y="-438.8" font-family="Times New Roman,serif" font-size="14.00">entropy = 0.891</text>
<text text-anchor="middle" x="412" y="-423.8" font-family="Times New Roman,serif" font-size="14.00">samples = 94</text>
<text text-anchor="middle" x="412" y="-408.8" font-family="Times New Roman,serif" font-size="14.00">value = [29, 65]</text>
</g>
<!-- 3&#45;&gt;22 -->
<g id="edge8" class="edge"><title>3&#45;&gt;22</title>
<path fill="none" stroke="black" d="M412,-504.884C412,-496.778 412,-487.982 412,-479.472"/>
<polygon fill="black" stroke="black" points="415.5,-479.299 412,-469.299 408.5,-479.299 415.5,-479.299"/>
</g>
<!-- 25 -->
<g id="node5" class="node"><title>25</title>
<polygon fill="none" stroke="black" points="159,-365 53,-365 53,-297 159,-297 159,-365"/>
<text text-anchor="middle" x="106" y="-349.8" font-family="Times New Roman,serif" font-size="14.00">Age &lt;= 8.0</text>
<text text-anchor="middle" x="106" y="-334.8" font-family="Times New Roman,serif" font-size="14.00">entropy = 0.326</text>
<text text-anchor="middle" x="106" y="-319.8" font-family="Times New Roman,serif" font-size="14.00">samples = 67</text>
<text text-anchor="middle" x="106" y="-304.8" font-family="Times New Roman,serif" font-size="14.00">value = [4, 63]</text>
</g>
<!-- 21&#45;&gt;25 -->
<g id="edge4" class="edge"><title>21&#45;&gt;25</title>
<path fill="none" stroke="black" d="M189.065,-400.884C177.895,-391.62 165.637,-381.455 154.049,-371.845"/>
<polygon fill="black" stroke="black" points="156.087,-368.989 146.155,-365.299 151.619,-374.377 156.087,-368.989"/>
</g>
<!-- 26 -->
<g id="node8" class="node"><title>26</title>
<polygon fill="none" stroke="black" points="281,-357.5 177,-357.5 177,-304.5 281,-304.5 281,-357.5"/>
<text text-anchor="middle" x="229" y="-342.3" font-family="Times New Roman,serif" font-size="14.00">entropy = 0.75</text>
<text text-anchor="middle" x="229" y="-327.3" font-family="Times New Roman,serif" font-size="14.00">samples = 70</text>
<text text-anchor="middle" x="229" y="-312.3" font-family="Times New Roman,serif" font-size="14.00">value = [15, 55]</text>
</g>
<!-- 21&#45;&gt;26 -->
<g id="edge7" class="edge"><title>21&#45;&gt;26</title>
<path fill="none" stroke="black" d="M229,-400.884C229,-390.326 229,-378.597 229,-367.854"/>
<polygon fill="black" stroke="black" points="232.5,-367.52 229,-357.52 225.5,-367.52 232.5,-367.52"/>
</g>
<!-- 29 -->
<g id="node6" class="node"><title>29</title>
<polygon fill="none" stroke="black" points="92,-253.5 0,-253.5 0,-200.5 92,-200.5 92,-253.5"/>
<text text-anchor="middle" x="46" y="-238.3" font-family="Times New Roman,serif" font-size="14.00">entropy = 0.0</text>
<text text-anchor="middle" x="46" y="-223.3" font-family="Times New Roman,serif" font-size="14.00">samples = 1</text>
<text text-anchor="middle" x="46" y="-208.3" font-family="Times New Roman,serif" font-size="14.00">value = [1, 0]</text>
</g>
<!-- 25&#45;&gt;29 -->
<g id="edge5" class="edge"><title>25&#45;&gt;29</title>
<path fill="none" stroke="black" d="M86.5197,-296.884C79.9857,-285.776 72.6893,-273.372 66.1082,-262.184"/>
<polygon fill="black" stroke="black" points="69.0987,-260.365 61.0117,-253.52 63.0652,-263.914 69.0987,-260.365"/>
</g>
<!-- 30 -->
<g id="node7" class="node"><title>30</title>
<polygon fill="none" stroke="black" points="216,-253.5 110,-253.5 110,-200.5 216,-200.5 216,-253.5"/>
<text text-anchor="middle" x="163" y="-238.3" font-family="Times New Roman,serif" font-size="14.00">entropy = 0.267</text>
<text text-anchor="middle" x="163" y="-223.3" font-family="Times New Roman,serif" font-size="14.00">samples = 66</text>
<text text-anchor="middle" x="163" y="-208.3" font-family="Times New Roman,serif" font-size="14.00">value = [3, 63]</text>
</g>
<!-- 25&#45;&gt;30 -->
<g id="edge6" class="edge"><title>25&#45;&gt;30</title>
<path fill="none" stroke="black" d="M124.506,-296.884C130.652,-285.886 137.508,-273.617 143.711,-262.517"/>
<polygon fill="black" stroke="black" points="146.916,-263.957 148.739,-253.52 140.805,-260.542 146.916,-263.957"/>
</g>
<!-- 23 -->
<g id="node10" class="node"><title>23</title>
<polygon fill="none" stroke="black" points="397,-357.5 299,-357.5 299,-304.5 397,-304.5 397,-357.5"/>
<text text-anchor="middle" x="348" y="-342.3" font-family="Times New Roman,serif" font-size="14.00">entropy = 0.0</text>
<text text-anchor="middle" x="348" y="-327.3" font-family="Times New Roman,serif" font-size="14.00">samples = 12</text>
<text text-anchor="middle" x="348" y="-312.3" font-family="Times New Roman,serif" font-size="14.00">value = [0, 12]</text>
</g>
<!-- 22&#45;&gt;23 -->
<g id="edge9" class="edge"><title>22&#45;&gt;23</title>
<path fill="none" stroke="black" d="M391.221,-400.884C384.251,-389.776 376.469,-377.372 369.449,-366.184"/>
<polygon fill="black" stroke="black" points="372.292,-364.13 364.013,-357.52 366.363,-367.851 372.292,-364.13"/>
</g>
<!-- 24 -->
<g id="node11" class="node"><title>24</title>
<polygon fill="none" stroke="black" points="521,-365 415,-365 415,-297 521,-297 521,-365"/>
<text text-anchor="middle" x="468" y="-349.8" font-family="Times New Roman,serif" font-size="14.00">Age &lt;= 53.0</text>
<text text-anchor="middle" x="468" y="-334.8" font-family="Times New Roman,serif" font-size="14.00">entropy = 0.937</text>
<text text-anchor="middle" x="468" y="-319.8" font-family="Times New Roman,serif" font-size="14.00">samples = 82</text>
<text text-anchor="middle" x="468" y="-304.8" font-family="Times New Roman,serif" font-size="14.00">value = [29, 53]</text>
</g>
<!-- 22&#45;&gt;24 -->
<g id="edge10" class="edge"><title>22&#45;&gt;24</title>
<path fill="none" stroke="black" d="M430.182,-400.884C434.876,-392.332 439.993,-383.013 444.902,-374.072"/>
<polygon fill="black" stroke="black" points="447.973,-375.75 449.718,-365.299 441.837,-372.381 447.973,-375.75"/>
</g>
<!-- 35 -->
<g id="node12" class="node"><title>35</title>
<polygon fill="none" stroke="black" points="397,-253.5 291,-253.5 291,-200.5 397,-200.5 397,-253.5"/>
<text text-anchor="middle" x="344" y="-238.3" font-family="Times New Roman,serif" font-size="14.00">entropy = 0.904</text>
<text text-anchor="middle" x="344" y="-223.3" font-family="Times New Roman,serif" font-size="14.00">samples = 75</text>
<text text-anchor="middle" x="344" y="-208.3" font-family="Times New Roman,serif" font-size="14.00">value = [24, 51]</text>
</g>
<!-- 24&#45;&gt;35 -->
<g id="edge11" class="edge"><title>24&#45;&gt;35</title>
<path fill="none" stroke="black" d="M427.741,-296.884C413.301,-285.006 397.06,-271.646 382.751,-259.876"/>
<polygon fill="black" stroke="black" points="384.971,-257.17 375.024,-253.52 380.524,-262.576 384.971,-257.17"/>
</g>
<!-- 36 -->
<g id="node13" class="node"><title>36</title>
<polygon fill="none" stroke="black" points="521,-253.5 415,-253.5 415,-200.5 521,-200.5 521,-253.5"/>
<text text-anchor="middle" x="468" y="-238.3" font-family="Times New Roman,serif" font-size="14.00">entropy = 0.863</text>
<text text-anchor="middle" x="468" y="-223.3" font-family="Times New Roman,serif" font-size="14.00">samples = 7</text>
<text text-anchor="middle" x="468" y="-208.3" font-family="Times New Roman,serif" font-size="14.00">value = [5, 2]</text>
</g>
<!-- 24&#45;&gt;36 -->
<g id="edge12" class="edge"><title>24&#45;&gt;36</title>
<path fill="none" stroke="black" d="M468,-296.884C468,-286.326 468,-274.597 468,-263.854"/>
<polygon fill="black" stroke="black" points="471.5,-263.52 468,-253.52 464.5,-263.52 471.5,-263.52"/>
</g>
<!-- 9 -->
<g id="node15" class="node"><title>9</title>
<polygon fill="none" stroke="black" points="764,-469 658,-469 658,-401 764,-401 764,-469"/>
<text text-anchor="middle" x="711" y="-453.8" font-family="Times New Roman,serif" font-size="14.00">Age &lt;= 38.5</text>
<text text-anchor="middle" x="711" y="-438.8" font-family="Times New Roman,serif" font-size="14.00">entropy = 0.991</text>
<text text-anchor="middle" x="711" y="-423.8" font-family="Times New Roman,serif" font-size="14.00">samples = 176</text>
<text text-anchor="middle" x="711" y="-408.8" font-family="Times New Roman,serif" font-size="14.00">value = [98, 78]</text>
</g>
<!-- 4&#45;&gt;9 -->
<g id="edge14" class="edge"><title>4&#45;&gt;9</title>
<path fill="none" stroke="black" d="M750.169,-504.884C745.307,-496.332 740.008,-487.013 734.923,-478.072"/>
<polygon fill="black" stroke="black" points="737.921,-476.262 729.935,-469.299 731.835,-479.722 737.921,-476.262"/>
</g>
<!-- 10 -->
<g id="node20" class="node"><title>10</title>
<polygon fill="none" stroke="black" points="888,-469 782,-469 782,-401 888,-401 888,-469"/>
<text text-anchor="middle" x="835" y="-453.8" font-family="Times New Roman,serif" font-size="14.00">Age &lt;= 27.5</text>
<text text-anchor="middle" x="835" y="-438.8" font-family="Times New Roman,serif" font-size="14.00">entropy = 0.585</text>
<text text-anchor="middle" x="835" y="-423.8" font-family="Times New Roman,serif" font-size="14.00">samples = 57</text>
<text text-anchor="middle" x="835" y="-408.8" font-family="Times New Roman,serif" font-size="14.00">value = [49, 8]</text>
</g>
<!-- 4&#45;&gt;10 -->
<g id="edge19" class="edge"><title>4&#45;&gt;10</title>
<path fill="none" stroke="black" d="M790.428,-504.884C796.019,-496.243 802.117,-486.819 807.958,-477.793"/>
<polygon fill="black" stroke="black" points="810.959,-479.596 813.453,-469.299 805.082,-475.794 810.959,-479.596"/>
</g>
<!-- 13 -->
<g id="node16" class="node"><title>13</title>
<polygon fill="none" stroke="black" points="644,-365 540,-365 540,-297 644,-297 644,-365"/>
<text text-anchor="middle" x="592" y="-349.8" font-family="Times New Roman,serif" font-size="14.00">Age &lt;= 20.5</text>
<text text-anchor="middle" x="592" y="-334.8" font-family="Times New Roman,serif" font-size="14.00">entropy = 1.0</text>
<text text-anchor="middle" x="592" y="-319.8" font-family="Times New Roman,serif" font-size="14.00">samples = 155</text>
<text text-anchor="middle" x="592" y="-304.8" font-family="Times New Roman,serif" font-size="14.00">value = [79, 76]</text>
</g>
<!-- 9&#45;&gt;13 -->
<g id="edge15" class="edge"><title>9&#45;&gt;13</title>
<path fill="none" stroke="black" d="M672.364,-400.884C661.556,-391.62 649.697,-381.455 638.486,-371.845"/>
<polygon fill="black" stroke="black" points="640.72,-369.15 630.849,-365.299 636.164,-374.465 640.72,-369.15"/>
</g>
<!-- 14 -->
<g id="node19" class="node"><title>14</title>
<polygon fill="none" stroke="black" points="768,-357.5 662,-357.5 662,-304.5 768,-304.5 768,-357.5"/>
<text text-anchor="middle" x="715" y="-342.3" font-family="Times New Roman,serif" font-size="14.00">entropy = 0.454</text>
<text text-anchor="middle" x="715" y="-327.3" font-family="Times New Roman,serif" font-size="14.00">samples = 21</text>
<text text-anchor="middle" x="715" y="-312.3" font-family="Times New Roman,serif" font-size="14.00">value = [19, 2]</text>
</g>
<!-- 9&#45;&gt;14 -->
<g id="edge18" class="edge"><title>9&#45;&gt;14</title>
<path fill="none" stroke="black" d="M712.299,-400.884C712.717,-390.216 713.182,-378.352 713.607,-367.519"/>
<polygon fill="black" stroke="black" points="717.105,-367.649 713.999,-357.52 710.11,-367.375 717.105,-367.649"/>
</g>
<!-- 37 -->
<g id="node17" class="node"><title>37</title>
<polygon fill="none" stroke="black" points="645,-253.5 539,-253.5 539,-200.5 645,-200.5 645,-253.5"/>
<text text-anchor="middle" x="592" y="-238.3" font-family="Times New Roman,serif" font-size="14.00">entropy = 0.977</text>
<text text-anchor="middle" x="592" y="-223.3" font-family="Times New Roman,serif" font-size="14.00">samples = 73</text>
<text text-anchor="middle" x="592" y="-208.3" font-family="Times New Roman,serif" font-size="14.00">value = [43, 30]</text>
</g>
<!-- 13&#45;&gt;37 -->
<g id="edge16" class="edge"><title>13&#45;&gt;37</title>
<path fill="none" stroke="black" d="M592,-296.884C592,-286.326 592,-274.597 592,-263.854"/>
<polygon fill="black" stroke="black" points="595.5,-263.52 592,-253.52 588.5,-263.52 595.5,-263.52"/>
</g>
<!-- 38 -->
<g id="node18" class="node"><title>38</title>
<polygon fill="none" stroke="black" points="769,-253.5 663,-253.5 663,-200.5 769,-200.5 769,-253.5"/>
<text text-anchor="middle" x="716" y="-238.3" font-family="Times New Roman,serif" font-size="14.00">entropy = 0.989</text>
<text text-anchor="middle" x="716" y="-223.3" font-family="Times New Roman,serif" font-size="14.00">samples = 82</text>
<text text-anchor="middle" x="716" y="-208.3" font-family="Times New Roman,serif" font-size="14.00">value = [36, 46]</text>
</g>
<!-- 13&#45;&gt;38 -->
<g id="edge17" class="edge"><title>13&#45;&gt;38</title>
<path fill="none" stroke="black" d="M632.259,-296.884C646.699,-285.006 662.94,-271.646 677.249,-259.876"/>
<polygon fill="black" stroke="black" points="679.476,-262.576 684.976,-253.52 675.029,-257.17 679.476,-262.576"/>
</g>
<!-- 11 -->
<g id="node21" class="node"><title>11</title>
<polygon fill="none" stroke="black" points="884,-357.5 786,-357.5 786,-304.5 884,-304.5 884,-357.5"/>
<text text-anchor="middle" x="835" y="-342.3" font-family="Times New Roman,serif" font-size="14.00">entropy = 0.0</text>
<text text-anchor="middle" x="835" y="-327.3" font-family="Times New Roman,serif" font-size="14.00">samples = 31</text>
<text text-anchor="middle" x="835" y="-312.3" font-family="Times New Roman,serif" font-size="14.00">value = [31, 0]</text>
</g>
<!-- 10&#45;&gt;11 -->
<g id="edge20" class="edge"><title>10&#45;&gt;11</title>
<path fill="none" stroke="black" d="M835,-400.884C835,-390.326 835,-378.597 835,-367.854"/>
<polygon fill="black" stroke="black" points="838.5,-367.52 835,-357.52 831.5,-367.52 838.5,-367.52"/>
</g>
<!-- 12 -->
<g id="node22" class="node"><title>12</title>
<polygon fill="none" stroke="black" points="1001.5,-357.5 902.5,-357.5 902.5,-304.5 1001.5,-304.5 1001.5,-357.5"/>
<text text-anchor="middle" x="952" y="-342.3" font-family="Times New Roman,serif" font-size="14.00">entropy = 0.89</text>
<text text-anchor="middle" x="952" y="-327.3" font-family="Times New Roman,serif" font-size="14.00">samples = 26</text>
<text text-anchor="middle" x="952" y="-312.3" font-family="Times New Roman,serif" font-size="14.00">value = [18, 8]</text>
</g>
<!-- 10&#45;&gt;12 -->
<g id="edge21" class="edge"><title>10&#45;&gt;12</title>
<path fill="none" stroke="black" d="M872.987,-400.884C886.485,-389.116 901.651,-375.894 915.061,-364.203"/>
<polygon fill="black" stroke="black" points="917.489,-366.73 922.727,-357.52 912.889,-361.453 917.489,-366.73"/>
</g>
<!-- 5 -->
<g id="node24" class="node"><title>5</title>
<polygon fill="none" stroke="black" points="1019,-573 915,-573 915,-505 1019,-505 1019,-573"/>
<text text-anchor="middle" x="967" y="-557.8" font-family="Times New Roman,serif" font-size="14.00">Class &lt;= 1.5</text>
<text text-anchor="middle" x="967" y="-542.8" font-family="Times New Roman,serif" font-size="14.00">entropy = 1.0</text>
<text text-anchor="middle" x="967" y="-527.8" font-family="Times New Roman,serif" font-size="14.00">samples = 45</text>
<text text-anchor="middle" x="967" y="-512.8" font-family="Times New Roman,serif" font-size="14.00">value = [22, 23]</text>
</g>
<!-- 2&#45;&gt;5 -->
<g id="edge23" class="edge"><title>2&#45;&gt;5</title>
<path fill="none" stroke="black" d="M967,-608.884C967,-600.778 967,-591.982 967,-583.472"/>
<polygon fill="black" stroke="black" points="970.5,-583.299 967,-573.299 963.5,-583.299 970.5,-583.299"/>
</g>
<!-- 6 -->
<g id="node27" class="node"><title>6</title>
<polygon fill="none" stroke="black" points="1269.5,-573 1144.5,-573 1144.5,-505 1269.5,-505 1269.5,-573"/>
<text text-anchor="middle" x="1207" y="-557.8" font-family="Times New Roman,serif" font-size="14.00">Class &lt;= 0.5</text>
<text text-anchor="middle" x="1207" y="-542.8" font-family="Times New Roman,serif" font-size="14.00">entropy = 0.599</text>
<text text-anchor="middle" x="1207" y="-527.8" font-family="Times New Roman,serif" font-size="14.00">samples = 1450</text>
<text text-anchor="middle" x="1207" y="-512.8" font-family="Times New Roman,serif" font-size="14.00">value = [1239, 211]</text>
</g>
<!-- 2&#45;&gt;6 -->
<g id="edge26" class="edge"><title>2&#45;&gt;6</title>
<path fill="none" stroke="black" d="M1029.74,-615.334C1061.99,-601.63 1101.44,-584.863 1134.93,-570.63"/>
<polygon fill="black" stroke="black" points="1136.37,-573.82 1144.21,-566.687 1133.63,-567.378 1136.37,-573.82"/>
</g>
<!-- 17 -->
<g id="node25" class="node"><title>17</title>
<polygon fill="none" stroke="black" points="1012,-461.5 906,-461.5 906,-408.5 1012,-408.5 1012,-461.5"/>
<text text-anchor="middle" x="959" y="-446.3" font-family="Times New Roman,serif" font-size="14.00">entropy = 0.592</text>
<text text-anchor="middle" x="959" y="-431.3" font-family="Times New Roman,serif" font-size="14.00">samples = 14</text>
<text text-anchor="middle" x="959" y="-416.3" font-family="Times New Roman,serif" font-size="14.00">value = [2, 12]</text>
</g>
<!-- 5&#45;&gt;17 -->
<g id="edge24" class="edge"><title>5&#45;&gt;17</title>
<path fill="none" stroke="black" d="M964.403,-504.884C963.566,-494.216 962.635,-482.352 961.786,-471.519"/>
<polygon fill="black" stroke="black" points="965.273,-471.216 961.002,-461.52 958.294,-471.763 965.273,-471.216"/>
</g>
<!-- 18 -->
<g id="node26" class="node"><title>18</title>
<polygon fill="none" stroke="black" points="1136,-461.5 1030,-461.5 1030,-408.5 1136,-408.5 1136,-461.5"/>
<text text-anchor="middle" x="1083" y="-446.3" font-family="Times New Roman,serif" font-size="14.00">entropy = 0.938</text>
<text text-anchor="middle" x="1083" y="-431.3" font-family="Times New Roman,serif" font-size="14.00">samples = 31</text>
<text text-anchor="middle" x="1083" y="-416.3" font-family="Times New Roman,serif" font-size="14.00">value = [20, 11]</text>
</g>
<!-- 5&#45;&gt;18 -->
<g id="edge25" class="edge"><title>5&#45;&gt;18</title>
<path fill="none" stroke="black" d="M1004.66,-504.884C1018.04,-493.116 1033.08,-479.894 1046.38,-468.203"/>
<polygon fill="black" stroke="black" points="1048.78,-470.752 1053.98,-461.52 1044.16,-465.495 1048.78,-470.752"/>
</g>
<!-- 7 -->
<g id="node28" class="node"><title>7</title>
<polygon fill="none" stroke="black" points="1260,-469 1154,-469 1154,-401 1260,-401 1260,-469"/>
<text text-anchor="middle" x="1207" y="-453.8" font-family="Times New Roman,serif" font-size="14.00">Age &lt;= 49.5</text>
<text text-anchor="middle" x="1207" y="-438.8" font-family="Times New Roman,serif" font-size="14.00">entropy = 0.893</text>
<text text-anchor="middle" x="1207" y="-423.8" font-family="Times New Roman,serif" font-size="14.00">samples = 142</text>
<text text-anchor="middle" x="1207" y="-408.8" font-family="Times New Roman,serif" font-size="14.00">value = [98, 44]</text>
</g>
<!-- 6&#45;&gt;7 -->
<g id="edge27" class="edge"><title>6&#45;&gt;7</title>
<path fill="none" stroke="black" d="M1207,-504.884C1207,-496.778 1207,-487.982 1207,-479.472"/>
<polygon fill="black" stroke="black" points="1210.5,-479.299 1207,-469.299 1203.5,-479.299 1210.5,-479.299"/>
</g>
<!-- 8 -->
<g id="node31" class="node"><title>8</title>
<polygon fill="none" stroke="black" points="1403.5,-469 1278.5,-469 1278.5,-401 1403.5,-401 1403.5,-469"/>
<text text-anchor="middle" x="1341" y="-453.8" font-family="Times New Roman,serif" font-size="14.00">Class &lt;= 1.5</text>
<text text-anchor="middle" x="1341" y="-438.8" font-family="Times New Roman,serif" font-size="14.00">entropy = 0.551</text>
<text text-anchor="middle" x="1341" y="-423.8" font-family="Times New Roman,serif" font-size="14.00">samples = 1308</text>
<text text-anchor="middle" x="1341" y="-408.8" font-family="Times New Roman,serif" font-size="14.00">value = [1141, 167]</text>
</g>
<!-- 6&#45;&gt;8 -->
<g id="edge30" class="edge"><title>6&#45;&gt;8</title>
<path fill="none" stroke="black" d="M1250.51,-504.884C1262.79,-495.531 1276.29,-485.259 1289.02,-475.568"/>
<polygon fill="black" stroke="black" points="1291.42,-478.141 1297.25,-469.299 1287.18,-472.571 1291.42,-478.141"/>
</g>
<!-- 15 -->
<g id="node29" class="node"><title>15</title>
<polygon fill="none" stroke="black" points="1139,-357.5 1033,-357.5 1033,-304.5 1139,-304.5 1139,-357.5"/>
<text text-anchor="middle" x="1086" y="-342.3" font-family="Times New Roman,serif" font-size="14.00">entropy = 0.955</text>
<text text-anchor="middle" x="1086" y="-327.3" font-family="Times New Roman,serif" font-size="14.00">samples = 109</text>
<text text-anchor="middle" x="1086" y="-312.3" font-family="Times New Roman,serif" font-size="14.00">value = [68, 41]</text>
</g>
<!-- 7&#45;&gt;15 -->
<g id="edge28" class="edge"><title>7&#45;&gt;15</title>
<path fill="none" stroke="black" d="M1167.71,-400.884C1153.76,-389.116 1138.07,-375.894 1124.2,-364.203"/>
<polygon fill="black" stroke="black" points="1126.18,-361.289 1116.27,-357.52 1121.66,-366.641 1126.18,-361.289"/>
</g>
<!-- 16 -->
<g id="node30" class="node"><title>16</title>
<polygon fill="none" stroke="black" points="1263,-357.5 1157,-357.5 1157,-304.5 1263,-304.5 1263,-357.5"/>
<text text-anchor="middle" x="1210" y="-342.3" font-family="Times New Roman,serif" font-size="14.00">entropy = 0.439</text>
<text text-anchor="middle" x="1210" y="-327.3" font-family="Times New Roman,serif" font-size="14.00">samples = 33</text>
<text text-anchor="middle" x="1210" y="-312.3" font-family="Times New Roman,serif" font-size="14.00">value = [30, 3]</text>
</g>
<!-- 7&#45;&gt;16 -->
<g id="edge29" class="edge"><title>7&#45;&gt;16</title>
<path fill="none" stroke="black" d="M1207.97,-400.884C1208.29,-390.216 1208.64,-378.352 1208.96,-367.519"/>
<polygon fill="black" stroke="black" points="1212.45,-367.619 1209.25,-357.52 1205.46,-367.413 1212.45,-367.619"/>
</g>
<!-- 19 -->
<g id="node32" class="node"><title>19</title>
<polygon fill="none" stroke="black" points="1392,-357.5 1286,-357.5 1286,-304.5 1392,-304.5 1392,-357.5"/>
<text text-anchor="middle" x="1339" y="-342.3" font-family="Times New Roman,serif" font-size="14.00">entropy = 0.276</text>
<text text-anchor="middle" x="1339" y="-327.3" font-family="Times New Roman,serif" font-size="14.00">samples = 126</text>
<text text-anchor="middle" x="1339" y="-312.3" font-family="Times New Roman,serif" font-size="14.00">value = [120, 6]</text>
</g>
<!-- 8&#45;&gt;19 -->
<g id="edge31" class="edge"><title>8&#45;&gt;19</title>
<path fill="none" stroke="black" d="M1340.35,-400.884C1340.14,-390.216 1339.91,-378.352 1339.7,-367.519"/>
<polygon fill="black" stroke="black" points="1343.2,-367.449 1339.5,-357.52 1336.2,-367.587 1343.2,-367.449"/>
</g>
<!-- 20 -->
<g id="node33" class="node"><title>20</title>
<polygon fill="none" stroke="black" points="1535.5,-365 1410.5,-365 1410.5,-297 1535.5,-297 1535.5,-365"/>
<text text-anchor="middle" x="1473" y="-349.8" font-family="Times New Roman,serif" font-size="14.00">Age &lt;= 52.5</text>
<text text-anchor="middle" x="1473" y="-334.8" font-family="Times New Roman,serif" font-size="14.00">entropy = 0.574</text>
<text text-anchor="middle" x="1473" y="-319.8" font-family="Times New Roman,serif" font-size="14.00">samples = 1182</text>
<text text-anchor="middle" x="1473" y="-304.8" font-family="Times New Roman,serif" font-size="14.00">value = [1021, 161]</text>
</g>
<!-- 8&#45;&gt;20 -->
<g id="edge32" class="edge"><title>8&#45;&gt;20</title>
<path fill="none" stroke="black" d="M1383.86,-400.884C1395.96,-391.531 1409.25,-381.259 1421.79,-371.568"/>
<polygon fill="black" stroke="black" points="1424.13,-374.183 1429.91,-365.299 1419.85,-368.644 1424.13,-374.183"/>
</g>
<!-- 27 -->
<g id="node34" class="node"><title>27</title>
<polygon fill="none" stroke="black" points="1469,-261 1351,-261 1351,-193 1469,-193 1469,-261"/>
<text text-anchor="middle" x="1410" y="-245.8" font-family="Times New Roman,serif" font-size="14.00">Age &lt;= 19.5</text>
<text text-anchor="middle" x="1410" y="-230.8" font-family="Times New Roman,serif" font-size="14.00">entropy = 0.582</text>
<text text-anchor="middle" x="1410" y="-215.8" font-family="Times New Roman,serif" font-size="14.00">samples = 1158</text>
<text text-anchor="middle" x="1410" y="-200.8" font-family="Times New Roman,serif" font-size="14.00">value = [997, 161]</text>
</g>
<!-- 20&#45;&gt;27 -->
<g id="edge33" class="edge"><title>20&#45;&gt;27</title>
<path fill="none" stroke="black" d="M1452.55,-296.884C1447.26,-288.332 1441.51,-279.013 1435.99,-270.072"/>
<polygon fill="black" stroke="black" points="1438.8,-267.968 1430.57,-261.299 1432.84,-271.647 1438.8,-267.968"/>
</g>
<!-- 28 -->
<g id="node39" class="node"><title>28</title>
<polygon fill="none" stroke="black" points="1585,-253.5 1487,-253.5 1487,-200.5 1585,-200.5 1585,-253.5"/>
<text text-anchor="middle" x="1536" y="-238.3" font-family="Times New Roman,serif" font-size="14.00">entropy = 0.0</text>
<text text-anchor="middle" x="1536" y="-223.3" font-family="Times New Roman,serif" font-size="14.00">samples = 24</text>
<text text-anchor="middle" x="1536" y="-208.3" font-family="Times New Roman,serif" font-size="14.00">value = [24, 0]</text>
</g>
<!-- 20&#45;&gt;28 -->
<g id="edge38" class="edge"><title>20&#45;&gt;28</title>
<path fill="none" stroke="black" d="M1493.45,-296.884C1500.32,-285.776 1507.98,-273.372 1514.89,-262.184"/>
<polygon fill="black" stroke="black" points="1517.96,-263.867 1520.24,-253.52 1512,-260.189 1517.96,-263.867"/>
</g>
<!-- 31 -->
<g id="node35" class="node"><title>31</title>
<polygon fill="none" stroke="black" points="1398,-149.5 1292,-149.5 1292,-96.5 1398,-96.5 1398,-149.5"/>
<text text-anchor="middle" x="1345" y="-134.3" font-family="Times New Roman,serif" font-size="14.00">entropy = 0.366</text>
<text text-anchor="middle" x="1345" y="-119.3" font-family="Times New Roman,serif" font-size="14.00">samples = 100</text>
<text text-anchor="middle" x="1345" y="-104.3" font-family="Times New Roman,serif" font-size="14.00">value = [93, 7]</text>
</g>
<!-- 27&#45;&gt;31 -->
<g id="edge34" class="edge"><title>27&#45;&gt;31</title>
<path fill="none" stroke="black" d="M1388.9,-192.884C1381.82,-181.776 1373.91,-169.372 1366.78,-158.184"/>
<polygon fill="black" stroke="black" points="1369.59,-156.072 1361.26,-149.52 1363.69,-159.834 1369.59,-156.072"/>
</g>
<!-- 32 -->
<g id="node36" class="node"><title>32</title>
<polygon fill="none" stroke="black" points="1534,-157 1416,-157 1416,-89 1534,-89 1534,-157"/>
<text text-anchor="middle" x="1475" y="-141.8" font-family="Times New Roman,serif" font-size="14.00">Age &lt;= 33.5</text>
<text text-anchor="middle" x="1475" y="-126.8" font-family="Times New Roman,serif" font-size="14.00">entropy = 0.599</text>
<text text-anchor="middle" x="1475" y="-111.8" font-family="Times New Roman,serif" font-size="14.00">samples = 1058</text>
<text text-anchor="middle" x="1475" y="-96.8" font-family="Times New Roman,serif" font-size="14.00">value = [904, 154]</text>
</g>
<!-- 27&#45;&gt;32 -->
<g id="edge35" class="edge"><title>27&#45;&gt;32</title>
<path fill="none" stroke="black" d="M1431.1,-192.884C1436.61,-184.243 1442.62,-174.819 1448.37,-165.793"/>
<polygon fill="black" stroke="black" points="1451.36,-167.614 1453.78,-157.299 1445.45,-163.852 1451.36,-167.614"/>
</g>
<!-- 33 -->
<g id="node37" class="node"><title>33</title>
<polygon fill="none" stroke="black" points="1468,-53 1350,-53 1350,-0 1468,-0 1468,-53"/>
<text text-anchor="middle" x="1409" y="-37.8" font-family="Times New Roman,serif" font-size="14.00">entropy = 0.653</text>
<text text-anchor="middle" x="1409" y="-22.8" font-family="Times New Roman,serif" font-size="14.00">samples = 661</text>
<text text-anchor="middle" x="1409" y="-7.8" font-family="Times New Roman,serif" font-size="14.00">value = [550, 111]</text>
</g>
<!-- 32&#45;&gt;33 -->
<g id="edge36" class="edge"><title>32&#45;&gt;33</title>
<path fill="none" stroke="black" d="M1451.92,-88.9485C1445.72,-80.0749 1439.01,-70.4648 1432.77,-61.5388"/>
<polygon fill="black" stroke="black" points="1435.57,-59.4311 1426.97,-53.2367 1429.83,-63.4392 1435.57,-59.4311"/>
</g>
<!-- 34 -->
<g id="node38" class="node"><title>34</title>
<polygon fill="none" stroke="black" points="1597.5,-53 1486.5,-53 1486.5,-0 1597.5,-0 1597.5,-53"/>
<text text-anchor="middle" x="1542" y="-37.8" font-family="Times New Roman,serif" font-size="14.00">entropy = 0.495</text>
<text text-anchor="middle" x="1542" y="-22.8" font-family="Times New Roman,serif" font-size="14.00">samples = 397</text>
<text text-anchor="middle" x="1542" y="-7.8" font-family="Times New Roman,serif" font-size="14.00">value = [354, 43]</text>
</g>
<!-- 32&#45;&gt;34 -->
<g id="edge37" class="edge"><title>32&#45;&gt;34</title>
<path fill="none" stroke="black" d="M1498.43,-88.9485C1504.72,-80.0749 1511.54,-70.4648 1517.87,-61.5388"/>
<polygon fill="black" stroke="black" points="1520.82,-63.4188 1523.75,-53.2367 1515.11,-59.3701 1520.82,-63.4188"/>
</g>
</g>
</svg>
